<svg width="43" height="35" viewBox="0 0 43 35" fill="none" xmlns="http://www.w3.org/2000/svg">
<path d="M27.9499 10.5C27.9499 11.8924 27.2704 13.2277 26.0607 14.2123C24.8511 15.1969 23.2106 15.75 21.4999 15.75C19.7893 15.75 18.1487 15.1969 16.9391 14.2123C15.7295 13.2277 15.0499 11.8924 15.0499 10.5C15.0499 9.10761 15.7295 7.77226 16.9391 6.78769C18.1487 5.80312 19.7893 5.25 21.4999 5.25C23.2106 5.25 24.8511 5.80312 26.0607 6.78769C27.2704 7.77226 27.9499 9.10761 27.9499 10.5ZM38.6999 14C38.6999 14.9283 38.2469 15.8185 37.4405 16.4749C36.6341 17.1313 35.5403 17.5 34.3999 17.5C33.2595 17.5 32.1658 17.1313 31.3593 16.4749C30.5529 15.8185 30.0999 14.9283 30.0999 14C30.0999 13.0717 30.5529 12.1815 31.3593 11.5251C32.1658 10.8687 33.2595 10.5 34.3999 10.5C35.5403 10.5 36.6341 10.8687 37.4405 11.5251C38.2469 12.1815 38.6999 13.0717 38.6999 14ZM30.0999 26.25C30.0999 24.3935 29.1938 22.613 27.581 21.3003C25.9682 19.9875 23.7808 19.25 21.4999 19.25C19.219 19.25 17.0316 19.9875 15.4188 21.3003C13.806 22.613 12.8999 24.3935 12.8999 26.25V31.5H30.0999V26.25ZM12.8999 14C12.8999 14.9283 12.4469 15.8185 11.6405 16.4749C10.8341 17.1313 9.74033 17.5 8.5999 17.5C7.45947 17.5 6.36575 17.1313 5.55934 16.4749C4.75294 15.8185 4.2999 14.9283 4.2999 14C4.2999 13.0717 4.75294 12.1815 5.55934 11.5251C6.36575 10.8687 7.45947 10.5 8.5999 10.5C9.74033 10.5 10.8341 10.8687 11.6405 11.5251C12.4469 12.1815 12.8999 13.0717 12.8999 14ZM34.3999 31.5V26.25C34.403 24.4707 33.848 22.7203 32.7874 21.1645C33.7406 20.9659 34.7369 20.9472 35.7004 21.1098C36.6638 21.2723 37.5689 21.6118 38.3466 22.1023C39.1243 22.5929 39.7541 23.2216 40.188 23.9404C40.6218 24.6592 40.8482 25.4491 40.8499 26.25V31.5H34.3999ZM10.2124 21.1645C9.15191 22.7203 8.59689 24.4708 8.5999 26.25V31.5H2.1499V26.25C2.14949 25.4486 2.3745 24.6577 2.80769 23.938C3.24088 23.2183 3.87075 22.5889 4.64903 22.098C5.42731 21.6071 6.33333 21.2677 7.29767 21.1059C8.26201 20.9441 9.25906 20.9641 10.2124 21.1645Z" fill="black"/>
</svg>
