<svg width="26" height="28" viewBox="0 0 26 28" fill="none" xmlns="http://www.w3.org/2000/svg">
<path fill-rule="evenodd" clip-rule="evenodd" d="M0 3.5C0 2.57174 0.442499 1.6815 1.23015 1.02513C2.0178 0.368749 3.08609 0 4.2 0H13.8306C14.9444 0.000198231 16.0125 0.369077 16.8 1.0255L23.9694 7C24.7571 7.65622 25.1998 8.54632 25.2 9.4745V24.5C25.2 25.4283 24.7575 26.3185 23.9698 26.9749C23.1822 27.6312 22.1139 28 21 28H4.2C3.08609 28 2.0178 27.6312 1.23015 26.9749C0.442499 26.3185 0 25.4283 0 24.5V3.5ZM4.2 14C4.2 13.5359 4.42125 13.0908 4.81508 12.7626C5.2089 12.4344 5.74305 12.25 6.3 12.25H18.9C19.457 12.25 19.9911 12.4344 20.3849 12.7626C20.7787 13.0908 21 13.5359 21 14C21 14.4641 20.7787 14.9092 20.3849 15.2374C19.9911 15.5656 19.457 15.75 18.9 15.75H6.3C5.74305 15.75 5.2089 15.5656 4.81508 15.2374C4.42125 14.9092 4.2 14.4641 4.2 14ZM6.3 19.25C5.74305 19.25 5.2089 19.4344 4.81508 19.7626C4.42125 20.0908 4.2 20.5359 4.2 21C4.2 21.4641 4.42125 21.9092 4.81508 22.2374C5.2089 22.5656 5.74305 22.75 6.3 22.75H18.9C19.457 22.75 19.9911 22.5656 20.3849 22.2374C20.7787 21.9092 21 21.4641 21 21C21 20.5359 20.7787 20.0908 20.3849 19.7626C19.9911 19.4344 19.457 19.25 18.9 19.25H6.3Z" fill="black"/>
</svg>
