<svg width="27" height="27" viewBox="0 0 27 27" fill="none" xmlns="http://www.w3.org/2000/svg">
<path fill-rule="evenodd" clip-rule="evenodd" d="M0.600098 3.75C0.600098 2.82174 1.05313 1.9315 1.85954 1.27513C2.66594 0.618749 3.75967 0.25 4.9001 0.25C4.9001 1.64239 5.57965 2.97774 6.78926 3.96231C7.99887 4.94688 9.63945 5.5 11.3501 5.5H15.6501C17.3607 5.5 19.0013 4.94688 20.2109 3.96231C21.4205 2.97774 22.1001 1.64239 22.1001 0.25C23.2405 0.25 24.3343 0.618749 25.1407 1.27513C25.9471 1.9315 26.4001 2.82174 26.4001 3.75V23C26.4001 23.9283 25.9471 24.8185 25.1407 25.4749C24.3343 26.1312 23.2405 26.5 22.1001 26.5H4.9001C3.75967 26.5 2.66594 26.1312 1.85954 25.4749C1.05313 24.8185 0.600098 23.9283 0.600098 23V3.75ZM7.0501 10.75C6.47988 10.75 5.93302 10.9344 5.52982 11.2626C5.12662 11.5908 4.9001 12.0359 4.9001 12.5C4.9001 12.9641 5.12662 13.4092 5.52982 13.7374C5.93302 14.0656 6.47988 14.25 7.0501 14.25H7.0716C7.64181 14.25 8.18867 14.0656 8.59188 13.7374C8.99508 13.4092 9.2216 12.9641 9.2216 12.5C9.2216 12.0359 8.99508 11.5908 8.59188 11.2626C8.18867 10.9344 7.64181 10.75 7.0716 10.75H7.0501ZM13.5001 10.75C12.9299 10.75 12.383 10.9344 11.9798 11.2626C11.5766 11.5908 11.3501 12.0359 11.3501 12.5C11.3501 12.9641 11.5766 13.4092 11.9798 13.7374C12.383 14.0656 12.9299 14.25 13.5001 14.25H19.9501C20.5203 14.25 21.0672 14.0656 21.4704 13.7374C21.8736 13.4092 22.1001 12.9641 22.1001 12.5C22.1001 12.0359 21.8736 11.5908 21.4704 11.2626C21.0672 10.9344 20.5203 10.75 19.9501 10.75H13.5001ZM7.0501 17.75C6.47988 17.75 5.93302 17.9344 5.52982 18.2626C5.12662 18.5908 4.9001 19.0359 4.9001 19.5C4.9001 19.9641 5.12662 20.4092 5.52982 20.7374C5.93302 21.0656 6.47988 21.25 7.0501 21.25H7.0716C7.64181 21.25 8.18867 21.0656 8.59188 20.7374C8.99508 20.4092 9.2216 19.9641 9.2216 19.5C9.2216 19.0359 8.99508 18.5908 8.59188 18.2626C8.18867 17.9344 7.64181 17.75 7.0716 17.75H7.0501ZM13.5001 17.75C12.9299 17.75 12.383 17.9344 11.9798 18.2626C11.5766 18.5908 11.3501 19.0359 11.3501 19.5C11.3501 19.9641 11.5766 20.4092 11.9798 20.7374C12.383 21.0656 12.9299 21.25 13.5001 21.25H19.9501C20.5203 21.25 21.0672 21.0656 21.4704 20.7374C21.8736 20.4092 22.1001 19.9641 22.1001 19.5C22.1001 19.0359 21.8736 18.5908 21.4704 18.2626C21.0672 17.9344 20.5203 17.75 19.9501 17.75H13.5001Z" fill="black"/>
</svg>
